<?xml version="1.0" encoding="utf-8"?>
<!-- Generator: Adobe Illustrator 21.1.0, SVG Export Plug-In . SVG Version: 6.00 Build 0)  -->
<svg version="1.1" id="レイヤー_1" xmlns="http://www.w3.org/2000/svg" xmlns:xlink="http://www.w3.org/1999/xlink" x="0px"
	 y="0px" viewBox="0 0 344 92" style="enable-background:new 0 0 344 92;" xml:space="preserve">
<g>
	<path d="M200.4,20.1l-3.6,25.5c-0.7,4.9-2,8.5-3.9,10.7c-1.9,2.2-4.7,3.2-8.4,3.2c-3.2,0-5.3-1-6.3-3c-1-2-1.2-5-0.6-9l3.9-27.4
		h-21.4l0.4-2.9c0.3-2,0.9-3.4,1.8-4.3c0.9-0.8,2.3-1.3,4.1-1.3c1.7,0,14.8,0.1,16.3,0.3l1.4-10c-1.1-0.1-17.3-0.4-18.5-0.4
		c-5.5,0-9.7,1.4-12.8,4.1c-3.1,2.8-4.9,6.3-5.5,10.6l-0.5,3.8h-8l-1.3,8.9h8l-1.2,8.3h-16.7c-0.1-1.2-0.3-2.3-0.5-3.4
		c-0.7-3.2-2.1-5.9-3.9-8.1c-1.9-2.2-4.3-3.9-7.2-5.2c-2.9-1.2-6.3-1.8-10.1-1.8c-3.8,0-7.4,0.6-10.6,1.8c-3.2,1.2-6.1,2.9-8.6,5.2
		c-2.5,2.2-4.6,4.9-6.2,8.1c0,0.1-0.1,0.2-0.1,0.3c0.2-2.3,0-4.3-0.4-6c-0.6-2.2-1.5-4-2.9-5.4c-1.4-1.4-3.1-2.4-5.2-3
		c-2.1-0.6-4.4-0.9-7-0.9c-3.4,0-6.4,0.8-9.1,2.4c-2.7,1.6-4.9,3.5-6.7,5.6c-0.9-3-2.5-5.1-4.9-6.3c-2.4-1.2-5.1-1.8-8.2-1.8
		c-3.2,0-6.1,0.7-8.8,2.1c-2.7,1.4-5.1,3.3-7.2,5.8h-0.2l0.9-6.6H8.2L1.3,68.7h13.3l4-28.2c0.3-2.4,0.9-4.3,1.8-5.8
		c0.9-1.5,1.9-2.6,3-3.4c1.1-0.8,2.2-1.3,3.2-1.6c1.1-0.3,1.9-0.4,2.5-0.4c2.1,0,3.7,0.4,4.7,1.1c1,0.7,1.6,1.7,1.9,2.9
		c0.3,1.2,0.4,2.5,0.2,3.9c-0.1,1.4-0.3,2.8-0.5,4.3l-3.8,27.3h13.3l3.8-27.1c0.2-1.5,0.5-3,1-4.5c0.4-1.5,1.1-2.8,1.9-3.9
		c0.8-1.2,1.9-2.1,3.1-2.8c1.3-0.7,2.8-1.1,4.7-1.1c1.9,0,3.3,0.3,4.3,0.9c1,0.6,1.7,1.5,2.1,2.5c0.4,1.1,0.6,2.3,0.5,3.8
		c-0.1,1.4-0.2,3-0.5,4.6l-3.9,27.5h13.3L77.5,55c0,0,0,0,0,0.1c0.7,3.1,2.1,5.8,3.9,8c1.9,2.2,4.3,3.9,7.2,5.1
		c2.9,1.2,6.3,1.8,10.1,1.8c3.8,0,7.4-0.6,10.6-1.8s6.2-2.9,8.7-5.1c2.5-2.2,4.6-4.9,6.2-8c1-1.9,1.8-4,2.4-6.2h16.3L140,68.7h13.3
		l5.6-39.7h8l-3,21c-0.4,3-0.5,5.7-0.4,8.2c0.2,2.5,0.8,4.6,1.9,6.3c1.1,1.7,2.7,3.1,4.8,4c2.2,0.9,5,1.4,8.6,1.4
		c2.8,0,5.7-0.6,8.5-1.9c2.9-1.3,5.4-3.3,7.4-6.1h0.3l-1,6.8H207l6.8-48.6H200.4z M112.8,50.2c-0.6,1.8-1.5,3.5-2.6,5
		c-1.1,1.5-2.5,2.6-4.2,3.5c-1.7,0.9-3.6,1.3-5.9,1.3c-2.3,0-4.1-0.4-5.5-1.3c-1.4-0.9-2.4-2.1-3.1-3.5c-0.7-1.5-1.1-3.1-1.2-5
		c-0.1-1.8,0-3.7,0.2-5.7c0.3-1.9,0.7-3.9,1.4-5.7c0.6-1.9,1.5-3.5,2.6-5c1.1-1.4,2.5-2.6,4.1-3.5c1.6-0.9,3.6-1.4,5.8-1.4
		c2.3,0,4.1,0.5,5.5,1.4c1.4,0.9,2.5,2.1,3.2,3.5c0.5,1.1,0.9,2.3,1.1,3.6H99.6L98,48.8h15.2C113,49.3,112.9,49.7,112.8,50.2z"/>
	<path d="M222.9,44.6c0.5-3.4,1.4-6.7,2.8-9.7c1.4-3,3.2-5.7,5.4-8c2.2-2.3,4.8-4.1,7.7-5.5c2.9-1.3,6.2-2,9.8-2
		c3.6,0,6.6,0.7,9.2,2c2.6,1.3,4.6,3.2,6.2,5.5c1.6,2.3,2.6,5,3.1,8c0.5,3,0.6,6.3,0.1,9.7c-0.5,3.4-1.4,6.7-2.8,9.8
		c-1.4,3.1-3.2,5.7-5.4,8c-2.2,2.3-4.8,4.1-7.7,5.5c-2.9,1.3-6.2,2-9.8,2c-3.6,0-6.6-0.7-9.2-2c-2.6-1.3-4.6-3.2-6.2-5.5
		c-1.6-2.3-2.6-5-3.1-8C222.4,51.3,222.4,48,222.9,44.6z M226.5,44.6c-0.4,2.9-0.4,5.7,0.1,8.3c0.4,2.7,1.3,5,2.6,7.1
		c1.3,2.1,3,3.7,5.1,4.9c2.1,1.2,4.7,1.8,7.7,1.8c3,0,5.8-0.6,8.2-1.8s4.7-2.9,6.5-4.9c1.9-2.1,3.4-4.4,4.6-7.1
		c1.2-2.7,2-5.4,2.4-8.3c0.4-2.9,0.4-5.7-0.1-8.3c-0.4-2.7-1.3-5-2.6-7.1c-1.3-2.1-3-3.7-5.1-4.9c-2.1-1.2-4.7-1.8-7.7-1.8
		c-3,0-5.8,0.6-8.2,1.8c-2.5,1.2-4.7,2.9-6.5,4.9c-1.9,2.1-3.4,4.4-4.6,7.1C227.7,38.9,226.9,41.7,226.5,44.6z"/>
	<path d="M277.9,31.1h0.3c0.7-1.6,1.7-3,3-4.4c1.4-1.4,2.9-2.6,4.7-3.6c1.8-1,3.8-1.8,5.9-2.3c2.1-0.5,4.3-0.8,6.4-0.7l-0.5,3.6
		c-1.8-0.3-4-0.1-6.5,0.6c-2.5,0.6-5,2-7.5,4.1c-1,0.9-1.9,1.8-2.7,2.7c-0.8,0.9-1.5,1.8-2.1,2.9c-0.6,1.1-1.1,2.3-1.5,3.6
		c-0.4,1.3-0.8,2.9-1.1,4.7l-3.7,26.4H269l6.8-48.3h3.6L277.9,31.1z"/>
	<path d="M340,20.4l-6.4,45.8c-0.4,2.7-1.1,5.3-2,7.8c-1,2.5-2.4,4.8-4.2,6.7c-1.8,1.9-4.1,3.5-7,4.7c-2.8,1.2-6.3,1.7-10.5,1.7
		c-2.6,0-4.9-0.3-7.1-0.8c-2.2-0.5-4-1.4-5.5-2.5c-1.5-1.2-2.7-2.7-3.4-4.6c-0.8-1.9-1-4.3-0.7-7.1h3.6c-0.1,2.1,0.2,3.9,0.8,5.5
		c0.7,1.5,1.6,2.7,2.9,3.7c1.3,1,2.8,1.7,4.4,2.1c1.7,0.4,3.5,0.7,5.5,0.7c3.3,0,6.2-0.5,8.5-1.5c2.4-1,4.3-2.3,5.9-3.9
		c1.5-1.6,2.7-3.4,3.5-5.5s1.4-4.1,1.7-6.2l1.6-11.1h-0.3c-2.2,3.6-4.9,6.3-8,8.2c-3.2,1.9-6.8,2.8-10.9,2.8c-3.6,0-6.6-0.6-9-1.8
		c-2.4-1.2-4.3-2.9-5.8-5.1c-1.4-2.2-2.3-4.7-2.8-7.6c-0.4-2.9-0.4-6,0.1-9.4c0.5-3.2,1.3-6.2,2.6-9.1c1.3-2.9,3-5.4,5.1-7.6
		c2.1-2.2,4.5-3.9,7.3-5.2c2.8-1.3,5.9-1.9,9.2-1.9c3.8,0,7.2,1,10.2,2.9c3,1.9,4.9,4.7,5.7,8.3h0.2l1.4-10.1H340z M318.6,22.4
		c-2.9,0-5.6,0.6-7.9,1.8c-2.3,1.2-4.3,2.8-6,4.7c-1.7,1.9-3.1,4.2-4.1,6.6c-1.1,2.5-1.8,5-2.1,7.6c-0.4,2.8-0.4,5.5-0.1,8
		s1.1,4.7,2.4,6.6c1.2,1.9,2.8,3.4,4.8,4.5c2,1.1,4.4,1.6,7.2,1.6c2.9,0,5.6-0.6,7.9-1.7c2.4-1.1,4.4-2.7,6.1-4.6
		c1.7-1.9,3.2-4.1,4.2-6.6c1.1-2.5,1.8-5.1,2.2-7.8c0.4-2.7,0.4-5.3,0-7.8c-0.4-2.5-1.2-4.7-2.4-6.6c-1.2-1.9-2.8-3.4-4.9-4.6
		C324,23,321.5,22.4,318.6,22.4z"/>
	<path d="M221,64.4c-0.4,2.5-2.7,4.6-5.3,4.6s-4.3-2.1-4-4.6c0.4-2.5,2.7-4.6,5.3-4.6S221.4,61.8,221,64.4z"/>
</g>
</svg>
